# xmcd CD database file
#
# Track frame offsets:
#	150
#	21737
#	39550
#	54857
#	75395
#	96040
#	117612
#	135462
#	158310
#	174217
#
# Disc length: 2527 seconds
#
# Revision: 0
# Processed by: cddbd v1.5PL3 Copyright (c) Steve Scherf et al.
# Submitted via: CDex 1.51
#
DISCID=6f09dd0a
DTITLE=椎名恵 - GAMBARE
DYEAR=1995
DGENRE=JPop
TTITLE0=がんばれ！
TTITLE1=星の囁き
TTITLE2=LOVE
TTITLE3=あの夏に戻りたい
TTITLE4=恋をしよう
TTITLE5=昨日、今日、明日
TTITLE6=愛する程の孤独
TTITLE7=夜を往け
TTITLE8=夕暮れがしのび寄る
TTITLE9=Come to my home
EXTD=YEAR: 1995
EXTT0=
EXTT1=
EXTT2=
EXTT3=
EXTT4=
EXTT5=
EXTT6=
EXTT7=
EXTT8=
EXTT9=
PLAYORDER=
